<svg xmlns="http://www.w3.org/2000/svg" aria-hidden="true" style="position:absolute;width:0;height:0;overflow:hidden">
  <defs>
    <symbol id="arrow-down" viewBox="0 0 32 32">
      <path d="M2.294 8.294a.991.991 0 0 1 .708-.293 1.002 1.002 0 0 1 .708.293l11.292 11.294L26.294 8.294a.991.991 0 0 1 .708-.293 1.006 1.006 0 0 1 .925.618 1.006 1.006 0 0 1-.217 1.091l-12 12a.991.991 0 0 1-.708.293 1.002 1.002 0 0 1-.708-.293l-12-12a.991.991 0 0 1-.293-.708 1.002 1.002 0 0 1 .293-.708z"/>
    </symbol>
    <symbol id="arrow-up" viewBox="0 0 32 32">
      <path d="M14.293 8.294a.991.991 0 0 1 .708-.293 1.002 1.002 0 0 1 .708.293l12 12a1 1 0 0 1-.708 1.709 1 1 0 0 1-.708-.293L15.001 10.416 3.709 21.71A1 1 0 0 1 2 21.002a1 1 0 0 1 .293-.708l12-12z"/>
    </symbol>
    <symbol id="calendar" viewBox="0 0 32 32">
      <path d="M7 0a.997.997 0 0 1 1 1v1h16V1a.997.997 0 0 1 1-1 .997.997 0 0 1 1 1v1h2a4.003 4.003 0 0 1 4 4v22a4.003 4.003 0 0 1-4 4H4a4.003 4.003 0 0 1-4-4V6a4.003 4.003 0 0 1 4-4h2V1a.997.997 0 0 1 1-1zM4 4a2 2 0 0 0-2 2v22a2 2 0 0 0 2 2h24a2 2 0 0 0 2-2V6a2 2 0 0 0-2-2H4z"/>
      <path d="M5 8a.997.997 0 0 1 1-1h20a.997.997 0 0 1 1 1v2a.997.997 0 0 1-1 1H6a.997.997 0 0 1-1-1V8zm17 7a.997.997 0 0 1 1-1h2a.997.997 0 0 1 1 1v2a.997.997 0 0 1-1 1h-2a.997.997 0 0 1-1-1v-2zm-6 0a.997.997 0 0 1 1-1h2a.997.997 0 0 1 1 1v2a.997.997 0 0 1-1 1h-2a.997.997 0 0 1-1-1v-2zM6 21a.997.997 0 0 1 1-1h2a.997.997 0 0 1 1 1v2a.997.997 0 0 1-1 1H7a.997.997 0 0 1-1-1v-2zm6 0a.997.997 0 0 1 1-1h2a.997.997 0 0 1 1 1v2a.997.997 0 0 1-1 1h-2a.997.997 0 0 1-1-1v-2z"/>
    </symbol>
    <symbol id="car" viewBox="0 0 32 32">
      <path d="M8 18a2 2 0 1 1-4.001-.001A2 2 0 0 1 8 18zm20 0a2 2 0 1 1-4.001-.001A2 2 0 0 1 28 18zm-16-2a2 2 0 0 0 0 4h8a2 2 0 0 0 0-4h-8zM9.724 8.552 7.812 12.38a1.02 1.02 0 0 0 .994 1.461c1.82-.146 4.7-.34 7.194-.34s5.376.194 7.194.34a1.018 1.018 0 0 0 .994-1.461l-1.912-3.826A1.002 1.002 0 0 0 21.382 8H10.618a1.002 1.002 0 0 0-.894.552z"/>
      <path d="M5.04 7.03A5.002 5.002 0 0 1 9.64 4h12.724a5 5 0 0 1 4.596 3.03l1.584 3.696c.15.35.42.638.76.808 1 .5 1.71 1.43 1.93 2.524l.67 3.358c.067.323.099.649.098.98v.826a4.97 4.97 0 0 1-2 3.994V27a.997.997 0 0 1-1 1h-4a.997.997 0 0 1-1-1v-2.676c-2.584.096-5.49.176-8 .176s-5.416-.08-8-.176V27a.997.997 0 0 1-1 1h-4a.997.997 0 0 1-1-1v-3.784a4.97 4.97 0 0 1-2-3.994v-.826c0-.329.033-.657.098-.98l.67-3.36a3.615 3.615 0 0 1 1.928-2.522 1.6 1.6 0 0 0 .762-.808L5.044 7.03H5.04zM9.64 6a3.004 3.004 0 0 0-2.758 1.82l-1.584 3.694a3.602 3.602 0 0 1-1.706 1.808 1.606 1.606 0 0 0-.86 1.128l-.672 3.358c-.039.194-.059.39-.06.588v.826a2.959 2.959 0 0 0 2.816 2.968c3.11.14 7.572.31 11.184.31s8.074-.168 11.184-.31A2.957 2.957 0 0 0 30 19.222v-.826c0-.197-.02-.393-.06-.588l-.67-3.36a1.611 1.611 0 0 0-.86-1.126 3.602 3.602 0 0 1-1.706-1.808L25.12 7.818A3.006 3.006 0 0 0 22.36 6H9.64z"/>
    </symbol>
    <symbol id="check-circle" viewBox="0 0 32 32">
      <path d="M16 30A14.002 14.002 0 0 1 2 16a13.998 13.998 0 1 1 23.899 9.899A13.996 13.996 0 0 1 16 30zm0 2a15.997 15.997 0 0 0 16-16A15.997 15.997 0 0 0 16 0 15.997 15.997 0 0 0 0 16a15.997 15.997 0 0 0 16 16z"/>
      <path d="m21.94 9.94-.04.044-6.946 8.85-4.186-4.188a1.497 1.497 0 0 0-2.083.037 1.5 1.5 0 0 0-.037 2.083l5.292 5.294a1.482 1.482 0 0 0 1.087.438 1.51 1.51 0 0 0 1.071-.478l7.984-9.98a1.502 1.502 0 0 0-1.09-2.535 1.498 1.498 0 0 0-1.052.435z"/>
    </symbol>
    <symbol id="fuel-pump" viewBox="0 0 32 32">
      <path d="M6 5a.997.997 0 0 1 1-1h10a.997.997 0 0 1 1 1v10a.997.997 0 0 1-1 1H7a.997.997 0 0 1-1-1V5z"/>
      <path d="M2 4a4.003 4.003 0 0 1 4-4h12a4.003 4.003 0 0 1 4 4v16a4.003 4.003 0 0 1 4 4v1a.997.997 0 0 0 1 1 .997.997 0 0 0 1-1v-9h-1a.997.997 0 0 1-1-1V8.75a.997.997 0 0 1 1-1h2.99c-.022-.952-.106-1.788-.402-2.444a1.944 1.944 0 0 0-.788-.916C28.432 4.17 27.872 4 27 4a.997.997 0 0 1-1-1 .997.997 0 0 1 1-1c1.128-.003 2.069.221 2.824.672.766.456 1.268 1.102 1.588 1.814.59 1.31.588 2.93.588 4.162v6.35a.988.988 0 0 1-.293.708.991.991 0 0 1-.708.293h-1v9a3.004 3.004 0 0 1-3 3 3.004 3.004 0 0 1-3-3v-1a2 2 0 0 0-2-2v8h1a.997.997 0 0 1 1 1 .997.997 0 0 1-1 1h-22a.997.997 0 0 1-1-1 .997.997 0 0 1 1-1h1v-26zm18 0a2 2 0 0 0-2-2H6a2 2 0 0 0-2 2v26h16V4z"/>
    </symbol>
    <symbol id="gear" viewBox="0 0 32 32">
      <path d="M16 9.508a6.49 6.49 0 1 0 6.492 6.49 6.495 6.495 0 0 0-1.901-4.591A6.495 6.495 0 0 0 16 9.506zM11.508 16A4.489 4.489 0 0 1 16 11.508 4.489 4.489 0 0 1 20.492 16 4.489 4.489 0 0 1 16 20.492 4.489 4.489 0 0 1 11.508 16z"/>
      <path d="M19.592 2.686c-1.054-3.58-6.13-3.58-7.184 0l-.188.638a1.754 1.754 0 0 1-1.006 1.12 1.756 1.756 0 0 1-1.504-.079l-.584-.32c-3.28-1.784-6.866 1.804-5.08 5.082l.318.584a1.746 1.746 0 0 1-1.041 2.51l-.638.188c-3.58 1.054-3.58 6.13 0 7.184l.638.188a1.754 1.754 0 0 1 1.12 1.006 1.756 1.756 0 0 1-.079 1.504l-.32.584c-1.784 3.28 1.802 6.868 5.082 5.08l.584-.318a1.746 1.746 0 0 1 2.51 1.04l.188.638c1.054 3.58 6.13 3.58 7.184 0l.188-.638a1.754 1.754 0 0 1 1.006-1.12 1.74 1.74 0 0 1 1.504.08l.584.32c3.28 1.786 6.868-1.804 5.08-5.082l-.318-.584a1.746 1.746 0 0 1 1.04-2.51l.638-.188c3.58-1.054 3.58-6.13 0-7.184l-.638-.188a1.754 1.754 0 0 1-1.12-1.006 1.74 1.74 0 0 1 .08-1.504l.32-.584c1.786-3.28-1.804-6.866-5.082-5.08l-.584.318a1.746 1.746 0 0 1-2.51-1.041l-.188-.638zm-5.266.566c.492-1.67 2.856-1.67 3.348 0l.188.638a3.748 3.748 0 0 0 5.385 2.23l.582-.32c1.528-.83 3.2.84 2.368 2.37l-.318.584a3.74 3.74 0 0 0-.17 3.225 3.75 3.75 0 0 0 2.403 2.159l.636.188c1.67.492 1.67 2.856 0 3.348l-.638.188a3.748 3.748 0 0 0-2.23 5.385l.32.582c.83 1.528-.84 3.2-2.37 2.368l-.582-.318a3.76 3.76 0 0 0-3.227-.171 3.746 3.746 0 0 0-2.159 2.403l-.188.636c-.492 1.67-2.856 1.67-3.348 0l-.188-.638a3.737 3.737 0 0 0-2.16-2.401 3.752 3.752 0 0 0-3.225.171l-.584.32c-1.528.83-3.2-.84-2.368-2.37l.318-.582c.268-.491.423-1.036.452-1.594s-.066-1.116-.279-1.633a3.745 3.745 0 0 0-2.404-2.161l-.638-.188c-1.67-.492-1.67-2.856 0-3.348l.638-.188a3.742 3.742 0 0 0 2.229-5.382l-.32-.584c-.83-1.528.84-3.2 2.37-2.368l.584.318a3.756 3.756 0 0 0 3.225.171 3.748 3.748 0 0 0 2.16-2.401l.188-.638z"/>
    </symbol>
    <symbol id="heart-active" viewBox="0 0 32 32">
      <path d="M16 2.628C24.876-6.496 47.068 9.47 16 30-15.068 9.472 7.124-6.496 16 2.628z"/>
    </symbol>
    <symbol id="heart-default" viewBox="0 0 32 32">
      <path d="m16 5.496-1.434-1.474C11.2.562 5.028 1.756 2.8 6.106c-1.046 2.046-1.282 5 .628 8.77C5.268 18.506 9.096 22.854 16 27.59c6.904-4.736 10.73-9.084 12.572-12.714 1.91-3.772 1.676-6.724.628-8.77C26.972 1.756 20.8.56 17.434 4.02L16 5.496zM16 30C-14.666 9.736 6.558-6.08 15.648 2.286c.12.111.237.225.352.342a5.94 5.94 0 0 1 .352-.34C25.44-6.084 46.666 9.734 16 30z"/>
    </symbol>
    <symbol id="location" viewBox="0 0 32 32">
      <path d="M23.061 16.762c-.982 1.991-2.314 3.975-3.675 5.756a60.032 60.032 0 0 1-4.136 4.819 59.83 59.83 0 0 1-4.136-4.819c-1.361-1.781-2.692-3.765-3.675-5.756-.994-2.012-1.564-3.896-1.564-5.512a9.376 9.376 0 0 1 18.75 0c0 1.616-.572 3.501-1.564 5.512zM15.25 30S26.5 19.339 26.5 11.25a11.249 11.249 0 1 0-22.5 0C4 19.339 15.25 30 15.25 30z"/>
      <path d="M15.25 15a3.752 3.752 0 0 1-3.75-3.75 3.752 3.752 0 0 1 3.75-3.75A3.752 3.752 0 0 1 19 11.25 3.752 3.752 0 0 1 15.25 15zm0 1.875a5.63 5.63 0 0 0 5.625-5.625 5.63 5.63 0 0 0-5.625-5.625 5.63 5.63 0 0 0-5.625 5.625 5.63 5.63 0 0 0 5.625 5.625z"/>
    </symbol>
    <symbol id="logo" viewBox="0 0 104 16">
      <path fill="#3470FF" d="M101.071 7.645c-.683 0-1.307.04-1.872.119a9.207 9.207 0 0 0-1.832.472v7.527h-3.429V4.572h2.542l.512 1.32c.683-.551 1.353-.945 2.01-1.182a6.064 6.064 0 0 1 2.069-.354v3.29ZM92.299 15.645c-.42.092-.795.158-1.124.197-.315.04-.69.06-1.123.06-1.26 0-2.089-.408-2.483-1.222a6.995 6.995 0 0 1-1.655.926 5.052 5.052 0 0 1-1.813.315 3.366 3.366 0 0 1-1.596-.374 2.822 2.822 0 0 1-1.103-1.005 2.553 2.553 0 0 1-.394-1.38c0-.84.21-1.504.63-1.99.434-.499 1.012-.893 1.734-1.182.723-.302 1.82-.663 3.291-1.084l.591-.177V8.65c0-1.208-.552-1.813-1.655-1.813-.539 0-1.117.119-1.734.355-.617.237-1.327.618-2.128 1.143l-.65-2.365a13.75 13.75 0 0 1 2.719-1.202 9.931 9.931 0 0 1 2.956-.433c1.26 0 2.226.342 2.896 1.025.683.683 1.025 1.852 1.025 3.507v3.744c0 .289.059.499.177.63.118.119.309.178.572.178.25 0 .499-.033.748-.099l.118 2.325Zm-7.863-2.936c0 .263.066.454.197.572.145.118.368.177.67.177.552 0 1.202-.236 1.951-.71V10.66l-.295.099c-.986.354-1.656.67-2.01.945-.342.263-.513.598-.513 1.005ZM75.182 16c-1.629 0-3.008-.315-4.138-.946-1.13-.643-1.977-1.49-2.542-2.542a7.422 7.422 0 0 1-.827-3.468c0-1.235.289-2.377.867-3.428.59-1.051 1.465-1.892 2.62-2.522 1.156-.631 2.549-.946 4.178-.946 1.524 0 2.864.295 4.02.886l-.71 2.483a7.896 7.896 0 0 0-1.517-.59c-.525-.159-1.123-.237-1.793-.237-.854 0-1.596.197-2.227.59a3.75 3.75 0 0 0-1.418 1.577c-.316.657-.473 1.393-.473 2.207 0 1.287.341 2.345 1.024 3.172.683.815 1.662 1.222 2.936 1.222 1.09 0 2.266-.27 3.527-.808l.67 2.424c-.538.276-1.182.5-1.93.67-.75.17-1.505.256-2.267.256Z"/>
      <path fill="#101828" d="M61.784 0h3.428v15.764h-3.428V0ZM60.144 15.645c-.42.092-.795.158-1.123.197-.316.04-.69.06-1.123.06-1.262 0-2.09-.408-2.483-1.222a7 7 0 0 1-1.655.926 5.052 5.052 0 0 1-1.813.315 3.366 3.366 0 0 1-1.596-.374 2.822 2.822 0 0 1-1.104-1.005 2.552 2.552 0 0 1-.394-1.38c0-.84.21-1.504.63-1.99.434-.499 1.012-.893 1.735-1.182.722-.302 1.82-.663 3.29-1.084l.592-.177V8.65c0-1.208-.552-1.813-1.656-1.813-.538 0-1.116.119-1.734.355-.617.237-1.326.618-2.128 1.143l-.65-2.365a13.75 13.75 0 0 1 2.72-1.202 9.93 9.93 0 0 1 2.955-.433c1.261 0 2.227.342 2.897 1.025.683.683 1.024 1.852 1.024 3.507v3.744c0 .289.06.499.178.63.118.119.308.178.57.178.25 0 .5-.033.75-.099l.118 2.325Zm-7.862-2.936c0 .263.066.454.197.572.144.118.368.177.67.177.552 0 1.202-.236 1.95-.71V10.66l-.295.099c-.985.354-1.655.67-2.01.945-.341.263-.512.598-.512 1.005ZM47.624 15.034a4.71 4.71 0 0 1-1.419.65 6.07 6.07 0 0 1-1.576.218c-1.392 0-2.43-.303-3.113-.907-.683-.617-1.025-1.497-1.025-2.64v-5.36h-1.675V5.557l2.109-.848.946-3.014h2.049V4.57h3.152v2.424H43.92v4.532c0 .696.111 1.189.335 1.478.223.289.558.433 1.005.433.578 0 1.189-.17 1.832-.512l.532 2.108ZM33.19 4.335c1.458 0 2.463.387 3.015 1.163.565.775.847 1.891.847 3.35v6.916h-3.428V9.28c0-.92-.112-1.557-.335-1.912-.21-.354-.624-.532-1.242-.532-.67 0-1.353.224-2.049.67v8.257H26.57V4.57h2.541l.355.927c1.287-.776 2.529-1.163 3.724-1.163ZM17.028 10.798c.066.933.296 1.622.69 2.069.394.447.998.67 1.813.67a4.37 4.37 0 0 0 1.675-.315c.525-.224 1.123-.552 1.793-.986l.926 2.168c-.696.565-1.386.972-2.07 1.222-.682.25-1.464.374-2.344.374-1.3 0-2.39-.25-3.27-.749-.881-.512-1.538-1.202-1.971-2.069-.42-.88-.63-1.878-.63-2.995 0-1.773.498-3.192 1.497-4.256.998-1.064 2.456-1.596 4.374-1.596 1.524 0 2.68.414 3.468 1.241.801.815 1.209 1.977 1.222 3.488 0 .591-.086 1.17-.256 1.734h-6.917Zm3.843-2.227c.013-.078.02-.183.02-.315-.014-.538-.158-.946-.434-1.222-.276-.289-.657-.433-1.143-.433-1.156 0-1.878.657-2.167 1.97h3.724ZM5.438 10.838H3.547v4.926H0v-13.4h5.36c1.918 0 3.317.329 4.197.986.88.643 1.32 1.661 1.32 3.054 0 1.813-.664 3.028-1.99 3.645l3.763 5.715H8.552l-3.114-4.926ZM3.547 8.373H5.36c.696 0 1.195-.144 1.497-.433.315-.29.473-.736.473-1.34 0-.63-.151-1.084-.453-1.36-.302-.275-.808-.413-1.517-.413H3.547v3.546Z"/>
    </symbol>
  </defs>
</svg>
