<?xml version='1.0' encoding='utf-8'?>
<svg xmlns="http://www.w3.org/2000/svg" version="1.1" width="386" height="390">
<path d="M0 0 C3.06665442 0.01087785 6.13326554 0.01041688 9.19993591 0.01000881 C29.37241506 0.01055539 49.25185363 0.4661534 69.28851318 3.00811768 C70.62834269 3.16253815 71.96818645 3.31683509 73.30804443 3.4710083 C83.10063773 4.70606618 92.36430597 6.61111235 99.28851318 14.19561768 C101.31823371 16.83685657 103.25065809 19.53266169 105.17132568 22.25421143 C108.2351407 26.51076623 111.57936631 30.51433535 114.92718506 34.54864502 C117.71102179 37.91660819 120.46740339 41.30699025 123.22601318 44.69561768 C123.79408691 45.39066406 124.36216064 46.08571045 124.94744873 46.80181885 C125.48152344 47.45770996 126.01559814 48.11360107 126.56585693 48.78936768 C127.28116577 49.66625244 127.28116577 49.66625244 128.01092529 50.56085205 C129.17608614 52.05175918 130.23891196 53.62121584 131.28851318 55.19561768 C131.68038818 53.93749268 132.07226318 52.67936768 132.47601318 51.38311768 C133.61084776 48.35332347 134.120281 47.3293407 136.72601318 45.25811768 C145.57405982 41.58941541 157.33224629 41.98488049 166.28851318 45.19561768 C168.78851318 46.32061768 168.78851318 46.32061768 170.28851318 48.19561768 C170.94914269 52.15939472 171.15339727 54.57681577 169.25335693 58.13311768 C164.75535091 63.9466965 158.37734355 66.73862487 151.28851318 68.19561768 C149.95746057 68.28400789 148.62248722 68.32582851 147.28851318 68.32061768 C146.62851318 68.3231958 145.96851318 68.32577393 145.28851318 68.32843018 C143.18592012 68.18880486 141.32252023 67.72901484 139.28851318 67.19561768 C139.62060791 67.82427734 139.95270264 68.45293701 140.29486084 69.10064697 C159.60336707 105.71179831 159.60336707 105.71179831 159.62445068 126.85968018 C159.63088755 128.38087079 159.63761655 129.90206019 159.6446228 131.42324829 C159.6565465 134.59870272 159.66030832 137.77404871 159.65911865 140.94952393 C159.65891483 145.00926205 159.68630284 149.06830511 159.72066307 153.12787819 C159.74293587 156.26438573 159.74695622 159.40072541 159.7458992 162.53730392 C159.74825128 164.03397408 159.75705265 165.53064913 159.77256393 167.02724075 C159.79224937 169.1211323 159.7863798 171.2135162 159.77435303 173.30743408 C159.77720306 174.49575836 159.7800531 175.68408264 159.7829895 176.90841675 C159.16843806 180.99385827 157.95858759 183.05595437 155.28851318 186.19561768 C149.65552653 190.05685424 144.00064199 189.61294149 137.43252563 189.56983948 C136.22965696 189.57381388 135.02678828 189.57778829 133.78746903 189.58188313 C130.45649897 189.58983519 127.12604462 189.58435171 123.79511666 189.57313263 C120.20000825 189.56428253 116.60493473 189.5727364 113.00982666 189.57899475 C105.97070569 189.5884795 98.93168729 189.58188608 91.89257394 189.56973181 C83.69709889 189.55610806 75.50164825 189.55774995 67.30616476 189.55986514 C52.68583926 189.56305445 38.06556251 189.55138986 23.44525146 189.53179932 C9.25383012 189.51278843 -4.93753412 189.50571366 -19.12896729 189.5112915 C-34.58047593 189.51734664 -50.03195947 189.51717763 -65.48346603 189.50580567 C-67.13034367 189.50459837 -68.77722132 189.50339238 -70.42409897 189.50218773 C-71.63957243 189.50128242 -71.63957243 189.50128242 -72.87960092 189.50035882 C-78.59452245 189.49647685 -84.30943463 189.49687435 -90.02435684 189.49877357 C-96.98575232 189.50089366 -103.94709775 189.4956854 -110.90847911 189.48116002 C-114.4613561 189.47390712 -118.01416012 189.46984664 -121.5670433 189.47440338 C-125.41456693 189.47921808 -129.26195735 189.46858235 -133.10946655 189.45631409 C-134.80175862 189.46198307 -134.80175862 189.46198307 -136.52823842 189.46776658 C-137.55662072 189.46193439 -138.58500302 189.4561022 -139.64454842 189.45009327 C-140.53287932 189.44922649 -141.42121022 189.44835971 -142.33646023 189.44746667 C-146.46341397 189.00984245 -148.28097721 187.71329442 -150.92169189 184.53790283 C-154.0771536 178.52541295 -153.34867569 171.33956052 -153.34820557 164.71905518 C-153.35854678 163.18752555 -153.36961303 161.65600067 -153.38136292 160.1244812 C-153.40076578 156.91173613 -153.40423197 153.69942569 -153.39776611 150.4866333 C-153.39300518 147.23362274 -153.41345618 143.98248544 -153.45928955 140.72979736 C-153.71582788 122.29357214 -153.78479183 105.22927665 -145.71148682 88.19561768 C-145.18144043 87.05189697 -144.65139404 85.90817627 -144.10528564 84.72979736 C-142.75699714 82.03987637 -141.31954217 79.46331866 -139.77398682 76.88311768 C-139.28092041 76.02395752 -138.787854 75.16479736 -138.27984619 74.27960205 C-137.10687434 72.2411364 -135.91857643 70.21399219 -134.71148682 68.19561768 C-136.05340088 68.17434814 -136.05340088 68.17434814 -137.42242432 68.15264893 C-147.40343486 67.75894169 -155.20743489 66.18177827 -162.33648682 58.82061768 C-164.370834 56.16031751 -164.75576915 54.95810333 -165.39898682 51.50811768 C-164.71148682 48.19561768 -164.71148682 48.19561768 -162.91070557 46.01202393 C-158.01350392 43.23156145 -153.36551295 43.69420192 -147.83648682 43.82061768 C-146.24127197 43.82255127 -146.24127197 43.82255127 -144.61383057 43.82452393 C-130.92958905 43.97751545 -130.92958905 43.97751545 -126.71148682 48.19561768 C-125.99740348 50.1791825 -125.3253094 52.17877205 -124.71148682 54.19561768 C-119.15870145 47.6989592 -113.6417715 41.20428254 -108.43804932 34.42218018 C-105.7473849 30.95231882 -102.96982402 27.55769717 -100.16461182 24.17999268 C-98.40897472 22.04415392 -96.69878001 19.89700389 -95.00836182 17.71124268 C-94.07643933 16.53907406 -93.14415359 15.36719416 -92.21148682 14.19561768 C-91.59031982 13.36755615 -91.59031982 13.36755615 -90.956604 12.52276611 C-83.12592546 2.84675552 -66.49477072 3.18412872 -55.04205322 1.89518738 C-36.69113138 0.01460352 -18.42088215 -0.08237481 0 0 Z " fill="#3A7DBB" transform="translate(191.71148681640625,87.80438232421875)" />
<path d="M0 0 C2.99138158 0.3776945 5.9816515 0.68990162 8.984375 0.96289062 C9.75088379 1.03774689 10.51739258 1.11260315 11.30712891 1.18972778 C12.75349659 1.32969441 14.20113245 1.45738405 15.64990234 1.5697937 C21.69217958 2.1828929 25.54798383 4.47967429 29.47265625 9.04785156 C30.13910156 9.98886719 30.80554688 10.92988281 31.4921875 11.89941406 C32.26046875 12.9603125 33.02875 14.02121094 33.8203125 15.11425781 C34.42456055 15.95126221 34.42456055 15.95126221 35.04101562 16.80517578 C37.20320642 19.74685808 39.47477328 22.60106102 41.7421875 25.46191406 C62.3046875 51.51399922 62.3046875 51.51399922 62.3046875 53.52441406 C-19.2053125 53.52441406 -100.7153125 53.52441406 -184.6953125 53.52441406 C-181.85274794 48.54992609 -179.56914685 44.93010341 -175.9453125 40.71191406 C-171.42333199 35.39595985 -167.03561532 29.98932975 -162.6953125 24.52441406 C-160.70336323 22.03252458 -158.70959222 19.54217938 -156.7109375 17.05566406 C-155.31035897 15.296798 -153.92603504 13.52491488 -152.5546875 11.74316406 C-151.85859375 10.84597656 -151.1625 9.94878906 -150.4453125 9.02441406 C-149.82140625 8.20972656 -149.1975 7.39503906 -148.5546875 6.55566406 C-143.02614749 0.51608254 -133.38518306 0.60801053 -125.6953125 -0.47558594 C-124.70208984 -0.61673828 -123.70886719 -0.75789063 -122.68554688 -0.90332031 C-82.29886665 -6.30941137 -40.34247509 -5.12866261 0 0 Z " fill="#FDFEFE" transform="translate(255.6953125,99.4755859375)" />
<path d="M0 0 C3.06665442 0.01087785 6.13326554 0.01041688 9.19993591 0.01000881 C29.37241506 0.01055539 49.25185363 0.4661534 69.28851318 3.00811768 C70.62834269 3.16253815 71.96818645 3.31683509 73.30804443 3.4710083 C83.10063773 4.70606618 92.36430597 6.61111235 99.28851318 14.19561768 C101.31823371 16.83685657 103.25065809 19.53266169 105.17132568 22.25421143 C108.23219866 26.50667886 111.5734365 30.50538974 114.918396 34.53546143 C117.7506092 37.96722368 120.54757748 41.42784414 123.35101318 44.88311768 C124.48770367 46.28288021 125.6244201 47.68262168 126.76116943 49.08233643 C127.60364432 50.12007495 128.44610317 51.15782649 129.28851318 52.19561768 C128.95851318 52.85561768 128.62851318 53.51561768 128.28851318 54.19561768 C127.66976318 54.00999268 127.05101318 53.82436768 126.41351318 53.63311768 C124.2469114 52.95875592 124.2469114 52.95875592 122.28851318 54.19561768 C121.95851318 53.53561768 121.62851318 52.87561768 121.28851318 52.19561768 C120.29851318 53.18561768 119.30851318 54.17561768 118.28851318 55.19561768 C117.76644287 54.49178955 117.24437256 53.78796143 116.70648193 53.06280518 C112.00324278 46.75338102 107.21605947 40.52491581 102.32000732 34.36383057 C98.73973742 29.8357124 95.38892442 25.17573727 92.14007568 20.40264893 C87.259356 14.58491344 81.2509787 14.36817859 74.11663818 13.59014893 C72.99101471 13.46080963 71.86539124 13.33147034 70.70565796 13.19821167 C66.98510702 12.78183347 63.26262909 12.39125023 59.53851318 12.00811768 C58.25897766 11.87454865 56.97944214 11.74097961 55.66113281 11.60336304 C16.81962067 7.63847402 -22.96812532 6.68958512 -61.71148682 12.19561768 C-62.65830322 12.32903564 -63.60511963 12.46245361 -64.58062744 12.59991455 C-77.05667536 14.0586069 -77.05667536 14.0586069 -86.39898682 21.63311768 C-87.09765869 22.53417236 -87.79633057 23.43522705 -88.51617432 24.36358643 C-89.24062744 25.29815674 -89.96508057 26.23272705 -90.71148682 27.19561768 C-92.14344274 28.95015707 -93.58103439 30.70011071 -95.02398682 32.44561768 C-99.09721265 37.40432738 -103.06495795 42.43971813 -106.99395752 47.51300049 C-109.10512762 50.22388655 -111.18774133 52.8557212 -113.71148682 55.19561768 C-115.71148682 53.88311768 -115.71148682 53.88311768 -117.71148682 52.19561768 C-117.71148682 51.20561768 -117.71148682 50.21561768 -117.71148682 49.19561768 C-118.37148682 48.86561768 -119.03148682 48.53561768 -119.71148682 48.19561768 C-115.93136347 43.53876575 -112.14935082 38.88345485 -108.36529541 34.22979736 C-106.98659621 32.53400142 -105.60870617 30.83754765 -104.23101807 29.14093018 C-102.8124401 27.39936087 -101.38674738 25.66356037 -99.95367432 23.93389893 C-98.27915024 21.88887911 -96.64834501 19.82839337 -95.03179932 17.73858643 C-94.09210971 16.55726696 -93.15201128 15.37627256 -92.21148682 14.19561768 C-91.79689209 13.6430127 -91.38229736 13.09040771 -90.95513916 12.52105713 C-83.12599804 2.84632567 -66.49264984 3.18389003 -55.04205322 1.89518738 C-36.69113138 0.01460352 -18.42088215 -0.08237481 0 0 Z " fill="#3F7FBC" transform="translate(191.71148681640625,87.80438232421875)" />
<path d="M0 0 C1.53745628 -0.0131424 1.53745628 -0.0131424 3.10597229 -0.02655029 C6.49173405 -0.04854377 9.876188 -0.03398961 13.26196289 -0.01708984 C15.61699168 -0.02045822 17.97201878 -0.02531102 20.32704163 -0.03158569 C25.26246697 -0.03895722 30.19743977 -0.02824278 35.1328125 -0.00488281 C41.45602206 0.02358866 47.77816979 0.00721188 54.10134029 -0.02274513 C58.96472658 -0.0408234 63.82786167 -0.03505719 68.69125557 -0.02210617 C71.02243742 -0.01877285 73.35364215 -0.02285657 75.68479729 -0.03450394 C78.94542599 -0.04721881 82.20434241 -0.02782366 85.46484375 0 C86.42659515 -0.01012115 87.38834656 -0.02024231 88.37924194 -0.03067017 C92.80736649 0.0392493 95.86151971 0.22170774 99.3974762 3.04483032 C101.79711914 5.64697266 101.79711914 5.64697266 102.52368164 7.92822266 C102.2888932 13.05744709 101.70670456 15.96079212 97.79711914 19.64697266 C94.71141073 21.70411159 94.05538866 21.89946465 90.56645203 21.92112732 C89.70434113 21.93110245 88.84223022 21.94107758 87.95399475 21.95135498 C86.53962379 21.95235199 86.53962379 21.95235199 85.09667969 21.95336914 C83.60355255 21.96585442 83.60355255 21.96585442 82.08026123 21.97859192 C78.78141394 22.00273606 75.48276424 22.01146979 72.18383789 22.01806641 C69.89321329 22.02702987 67.60258931 22.03615166 65.31196594 22.04542542 C60.50597713 22.06193032 55.7000581 22.06961818 50.89404297 22.07250977 C44.7367708 22.07789288 38.5801549 22.11556435 32.42306805 22.16125393 C27.69012562 22.19100332 22.95734154 22.19823288 18.22431374 22.19923592 C15.95450652 22.20344294 13.68469903 22.21589643 11.41498375 22.23675346 C8.23808005 22.26362071 5.06270164 22.2588553 1.88574219 22.24633789 C0.94890091 22.26117218 0.01205963 22.27600647 -0.95317078 22.29129028 C-5.33924138 22.24209952 -8.2844304 22.04760877 -11.7709198 19.23451233 C-14.73299495 16.08294585 -15.39397931 14.54298889 -15.57788086 10.33447266 C-15.62686523 9.57521484 -15.67584961 8.81595703 -15.72631836 8.03369141 C-13.91607355 -0.22048456 -6.89007538 -0.07235659 0 0 Z " fill="#FAFBFC" transform="translate(151.202880859375,231.35302734375)" />
<path d="M0 0 C1.85431641 -0.05607422 1.85431641 -0.05607422 3.74609375 -0.11328125 C4.87015625 -0.15066406 5.99421875 -0.18804687 7.15234375 -0.2265625 C10.94006812 0.29472785 12.54016836 1.55701986 15.24609375 4.19921875 C16.9214335 7.54989824 16.51491323 11.26840667 16.55859375 14.94921875 C16.60209961 16.14804688 16.60209961 16.14804688 16.64648438 17.37109375 C16.70458822 22.80603805 15.88826516 25.90159163 12.24609375 30.19921875 C9.54710626 31.54871249 7.42891959 31.34127977 4.40698242 31.36035156 C3.18198532 31.36995911 1.95698822 31.37956665 0.69487 31.38946533 C-0.64873061 31.39431368 -1.99233338 31.39859242 -3.3359375 31.40234375 C-4.71115623 31.40809609 -6.08637494 31.41385382 -7.46159363 31.4196167 C-10.34752781 31.43012752 -13.23343413 31.43596933 -16.11938477 31.43945312 C-19.81158015 31.44493161 -23.50340559 31.46894498 -27.19548512 31.49742508 C-30.0377051 31.51608161 -32.87983662 31.5212587 -35.72211266 31.522789 C-37.08284206 31.52581036 -38.44357009 31.53382148 -39.80423927 31.54697418 C-41.71162201 31.5640922 -43.61915741 31.5603013 -45.52661133 31.55566406 C-46.6108992 31.55930969 -47.69518707 31.56295532 -48.81233215 31.56671143 C-52.18110869 31.14584808 -54.06554225 30.24967972 -56.75390625 28.19921875 C-57.50390625 25.51171875 -57.50390625 25.51171875 -56.75390625 22.19921875 C-50.76745844 12.8191795 -40.29882967 6.23394962 -29.75390625 3.19921875 C-19.95136751 1.12368121 -9.98203339 0.52974371 0 0 Z " fill="#FCFDFD" transform="translate(320.75390625,186.80078125)" />
<path d="M0 0 C0.69641602 0.02408936 1.39283203 0.04817871 2.11035156 0.07299805 C21.80105837 0.93286389 39.98298435 3.61691426 54.2265625 18.5 C56.44400515 21.53564341 56.6875 23.78420163 56.6875 27.5 C53.05617383 29.98187594 50.6476902 30.87528503 46.25805664 30.87231445 C45.19667984 30.87854324 44.13530304 30.88477203 43.04176331 30.89118958 C41.90520798 30.88197983 40.76865265 30.87277008 39.59765625 30.86328125 C37.83173378 30.86402901 37.83173378 30.86402901 36.03013611 30.86479187 C33.54294139 30.86245365 31.05574421 30.85274007 28.56860352 30.83618164 C24.76752482 30.81260868 20.96714877 30.81562072 17.16601562 30.82226562 C14.74739166 30.81668794 12.32877065 30.80957749 9.91015625 30.80078125 C8.77562515 30.80169266 7.64109406 30.80260406 6.47218323 30.80354309 C-5.54369292 30.69595045 -5.54369292 30.69595045 -10.125 27.0625 C-12.91138858 23.39619924 -12.59983748 19.08257991 -12.6875 14.6875 C-12.72488281 13.98818359 -12.76226562 13.28886719 -12.80078125 12.56835938 C-12.8647177 8.77124491 -12.49347208 6.14982477 -10.24609375 3.01953125 C-6.54518721 -0.15901032 -4.82269233 -0.19387708 0 0 Z " fill="#F9FBFC" transform="translate(65.3125,187.5)" />
<path d="M0 0 C14.85 0 29.7 0 45 0 C45 22 45 22 42 27 C37.23095109 30.51907779 30.40683636 29.37189826 24.72827148 29.37060547 C22.57260159 29.3749795 20.41897995 29.4113243 18.26367188 29.44921875 C16.88542363 29.4550876 15.50716571 29.45905654 14.12890625 29.4609375 C12.25827515 29.47326416 12.25827515 29.47326416 10.34985352 29.48583984 C6.37305801 28.90907262 4.79164074 27.84511566 2 25 C0 21 0 21 0 0 Z " fill="#1F3445" transform="translate(298,280)" />
<path d="M0 0 C14.52 0 29.04 0 44 0 C44.0825 3.691875 44.165 7.38375 44.25 11.1875 C44.28641602 12.3427417 44.32283203 13.4979834 44.36035156 14.68823242 C44.44241065 22.2568598 44.44241065 22.2568598 42.109375 26.17578125 C37.13908584 30.47416095 30.70170305 29.26181016 24.4519043 29.29516602 C22.20624427 29.31235651 19.96206567 29.35624 17.71679688 29.40039062 C16.28386497 29.41052001 14.85092057 29.41903535 13.41796875 29.42578125 C12.11625732 29.44036377 10.8145459 29.45494629 9.47338867 29.4699707 C5.45070055 28.92567643 3.83960264 27.83894204 1 25 C-0.27861615 22.44276771 -0.11336609 20.63262898 -0.09765625 17.7734375 C-0.09515869 16.84450684 -0.09266113 15.91557617 -0.09008789 14.95849609 C-0.08098389 13.77594238 -0.07187988 12.59338867 -0.0625 11.375 C-0.041875 7.62125 -0.02125 3.8675 0 0 Z " fill="#1E3344" transform="translate(47,280)" />
<path d="M0 0 C0.66 0.33 1.32 0.66 2 1 C0.68 1.66 -0.64 2.32 -2 3 C-1.67 3.66 -1.34 4.32 -1 5 C-15.85 5 -30.7 5 -46 5 C-46 4.67 -46 4.34 -46 4 C-113.98 3.67 -181.96 3.34 -252 3 C-252 9.6 -252 16.2 -252 23 C-252.33 23 -252.66 23 -253 23 C-253 17.06 -253 11.12 -253 5 C-267.52 5 -282.04 5 -297 5 C-292.50000861 1.62500646 -292.50000861 1.62500646 -287.98715115 1.61803246 C-286.46270292 1.60477269 -286.46270292 1.60477269 -284.90745777 1.59124506 C-283.23544185 1.5995396 -283.23544185 1.5995396 -281.52964783 1.60800171 C-279.75135105 1.59908982 -279.75135105 1.59908982 -277.93712908 1.58999789 C-274.64533574 1.57649313 -271.35403174 1.57640833 -268.06224763 1.58191919 C-264.51277557 1.58459747 -260.96337022 1.57001613 -257.41392517 1.55747986 C-251.26325876 1.53808113 -245.11265371 1.52951715 -238.96195793 1.52817917 C-230.06580482 1.52614126 -221.16975596 1.50668832 -212.27363784 1.48278125 C-197.83632615 1.44436432 -183.3990215 1.41856235 -168.96166992 1.40136719 C-154.94375619 1.38463126 -140.92585784 1.36445281 -126.90795898 1.33789062 C-126.04447737 1.3362572 -125.18099576 1.33462378 -124.29134803 1.33294086 C-114.86871838 1.31498116 -105.44609235 1.29563281 -96.02346897 1.27463722 C-95.19583414 1.2727958 -94.3681993 1.27095438 -93.51548462 1.26905716 C-90.20735941 1.26167828 -86.89923424 1.2542847 -83.59110946 1.24671336 C-73.89696069 1.22456158 -64.20282689 1.20676484 -54.50865758 1.19676055 C-48.43016919 1.19038726 -42.35169167 1.18084473 -36.27321189 1.16879199 C-32.76302201 1.1619973 -29.2528497 1.15692936 -25.74265289 1.15620613 C-21.94287529 1.1554175 -18.14313592 1.14708545 -14.34336853 1.13803101 C-13.22646053 1.13909926 -12.10955253 1.14016751 -10.95879883 1.14126813 C-9.94510776 1.13764379 -8.93141669 1.13401944 -7.88700771 1.13028526 C-7.009364 1.12925344 -6.13172028 1.12822161 -5.22748131 1.12715852 C-2.82657954 1.08755153 -2.82657954 1.08755153 0 0 Z " fill="#ECF5F8" transform="translate(344,275)" />
<path d="M0 0 C0.66 0.33 1.32 0.66 2 1 C0.02 1.99 0.02 1.99 -2 3 C-1.505 3.99 -1.505 3.99 -1 5 C-7.37199294 5.07589394 -13.74386991 5.1285335 -20.11621094 5.16479492 C-22.28520056 5.179907 -24.4541595 5.20039735 -26.62304688 5.22631836 C-29.73575396 5.26259534 -32.84805805 5.2797019 -35.9609375 5.29296875 C-36.934935 5.30845261 -37.9089325 5.32393646 -38.91244507 5.33988953 C-39.81322784 5.34011612 -40.71401062 5.34034271 -41.64208984 5.34057617 C-42.83455826 5.35056892 -42.83455826 5.35056892 -44.05111694 5.36076355 C-45.01581406 5.18218559 -45.01581406 5.18218559 -46 5 C-46.66 4.01 -47.32 3.02 -48 2 C-47.44289841 1.98969254 -46.88579681 1.97938507 -46.31181335 1.96876526 C-40.52066308 1.8606998 -34.72966839 1.74610173 -28.9387207 1.62768555 C-26.7766444 1.58433687 -24.61453387 1.54266175 -22.45239258 1.50268555 C-19.34706298 1.44498156 -16.24190564 1.38128728 -13.13671875 1.31640625 C-12.16788254 1.29969376 -11.19904633 1.28298126 -10.20085144 1.26576233 C-9.3001442 1.24581711 -8.39943695 1.22587189 -7.47143555 1.20532227 C-6.67867722 1.18977798 -5.88591888 1.1742337 -5.06913757 1.15821838 C-2.80260226 1.06918774 -2.80260226 1.06918774 0 0 Z " fill="#E2EBF1" transform="translate(344,275)" />
<path d="M0 0 C1.32 0.33 2.64 0.66 4 1 C4 1.66 4 2.32 4 3 C5.98 3.66 7.96 4.32 10 5 C6.93753253 6.78409802 4.77920727 7.22880021 1.25 7.125 C0.45078125 7.10695313 -0.3484375 7.08890625 -1.171875 7.0703125 C-1.77515625 7.04710938 -2.3784375 7.02390625 -3 7 C-2.690625 6.401875 -2.38125 5.80375 -2.0625 5.1875 C-0.89790296 2.91043228 -0.89790296 2.91043228 0 0 Z " fill="#3B7BB7" transform="translate(107,96)" />
<path d="M0 0 C2.97 0.495 2.97 0.495 6 1 C4.35 3.64 2.7 6.28 1 9 C-1.08954032 4.82091936 -1.16552619 4.19589427 0 0 Z " fill="#EEF5FA" transform="translate(66,135)" />
<path d="M0 0 C2.70165032 2.70165032 2 4.29811832 2 8 C2.66 8.66 3.32 9.32 4 10 C2.35 10.33 0.7 10.66 -1 11 C-1.66 10.01 -2.32 9.02 -3 8 C-2.34 7.01 -1.68 6.02 -1 5 C-0.61500109 3.34450469 -0.27206865 1.6777567 0 0 Z " fill="#528CC1" transform="translate(263,207)" />
<path d="M0 0 C2.475 0.495 2.475 0.495 5 1 C5.33 2.98 5.66 4.96 6 7 C5.01 7.495 5.01 7.495 4 8 C2.68 5.36 1.36 2.72 0 0 Z " fill="#4684BF" transform="translate(327,153)" />
<path d="M0 0 C4.29 0 8.58 0 13 0 C13.33 0.99 13.66 1.98 14 3 C12.22844346 2.88570603 10.45773771 2.75816963 8.6875 2.625 C7.70136719 2.55539063 6.71523438 2.48578125 5.69921875 2.4140625 C3 2 3 2 0 0 Z " fill="#598EBF" transform="translate(40,153)" />
<path d="M0 0 C0.66 0.33 1.32 0.66 2 1 C-0.65654657 4.73884332 -2.58110387 6.64978174 -7 8 C-6.21366078 6.85050412 -5.42073742 5.70551011 -4.625 4.5625 C-4.18414062 3.92441406 -3.74328125 3.28632812 -3.2890625 2.62890625 C-2 1 -2 1 0 0 Z " fill="#E1ECF4" transform="translate(111,103)" />
<path d="M0 0 C2.27816275 0.7749341 4.50945602 1.60582803 6.73046875 2.53125 C3.60866474 3.49786363 1.2096308 3.52113909 -2.01953125 3.09375 C-3.21835938 2.94099609 -3.21835938 2.94099609 -4.44140625 2.78515625 C-5.0446875 2.70136719 -5.64796875 2.61757812 -6.26953125 2.53125 C-4.26322956 0.17602628 -3.09030745 -0.63827348 0 0 Z " fill="#588EC5" transform="translate(235.26953125,95.46875)" />
<path d="M0 0 C1 3 1 3 0.22265625 4.82421875 C-0.8515625 6.54947917 -1.92578125 8.27473958 -3 10 C-3.66 9.67 -4.32 9.34 -5 9 C-3.35 6.03 -1.7 3.06 0 0 Z " fill="#5087BD" transform="translate(56,158)" />
<path d="M0 0 C0.66 0 1.32 0 2 0 C1.8125 1.875 1.8125 1.875 1 4 C-1.5625 5.25 -1.5625 5.25 -4 6 C-1.125 1.125 -1.125 1.125 0 0 Z " fill="#548CC2" transform="translate(105,96)" />
</svg>